<svg width="126" height="30" fill="none" xmlns="http://www.w3.org/2000/svg"><path d="M25.966 5.667c-1.057 0-1.793-.502-2.21-1.505-1.536 0-3.222.374-5.058 1.12-1.142.47-1.91.903-2.305 1.298-.395.394-.606.704-.633.928-.026.224.083.414.329.568.245.155.59.302 1.032.44.443.14.958.278 1.545.417 3.074.715 5.021 1.211 5.843 1.489 1.633.544 2.855 1.141 3.666 1.792.768.652 1.153 1.537 1.153 2.658 0 .928-.286 1.713-.857 2.353-.57.64-1.326 1.211-2.265 1.713-.94.502-1.988.947-3.146 1.337a33.92 33.92 0 01-3.666 1 56.613 56.613 0 01-3.802.689c-2.444.341-4.53.512-6.259.512-3.148 0-5.576-.379-7.284-1.137-.64-.288-1.163-1.008-1.569-2.16-.32-.95-.48-1.732-.48-2.346 0-.614.053-.952.16-1.017.107-.064.326-.066.656-.008.331.06.764.158 1.297.297l1.921.512c2.978.747 6.126 1.12 9.445 1.12 2.444 0 4.515-.218 6.212-.656 1.003-.267 1.536-.566 1.6-.896.043-.288-.747-.646-2.369-1.073a63.76 63.76 0 00-2.561-.64c-4.707-1.142-7.546-1.879-8.517-2.21-.971-.33-1.603-.624-1.897-.88a3.753 3.753 0 01-.728-.848c-.352-.609-.529-1.188-.529-1.737 0-.55.03-.974.089-1.273a4.33 4.33 0 01.248-.832c.224-.523.507-.88.848-1.073 2.743-1.537 6.772-2.887 12.087-4.05C22.689.523 26.579 0 29.632 0c.619 0 1.083.107 1.392.32.534.395.769.817.705 1.265a3.61 3.61 0 01-.408 1.24 4.38 4.38 0 01-.777 1.025 5.62 5.62 0 01-1.032.8c-.38.23-.771.42-1.177.569-.811.299-1.6.448-2.37.448zM38.02 17.769c.352-.149.843-.384 1.473-.704 3.853-1.974 5.966-3.063 6.34-3.266l.672-.368c.694-.448 1.014-.8.96-1.056-.117-.545-.41-.766-.88-.665-.47.102-.958.238-1.465.408a20.84 20.84 0 00-1.609.625 32.12 32.12 0 00-3.122 1.473 564.398 564.398 0 00-5.667 3.281 43.256 43.256 0 00-1.232 3.09l-1.937 5.475c-.608 1.697-1.222 2.844-1.841 3.442-.331.33-.7.496-1.105.496-1.003 0-1.793-.35-2.369-1.049-.576-.699-.864-1.584-.864-2.657s.138-2.13.416-3.17c.277-1.04.662-2.094 1.152-3.161.993-2.156 2.322-4.168 3.986-6.036 1.014-2.721 2.7-5.362 5.06-7.924 1.44-1.558 2.78-2.657 4.017-3.298.62-.32 1.148-.48 1.585-.48.438 0 .769.099.993.296a.942.942 0 01.336.737c0 .293-.09.664-.272 1.112-.182.449-.427.95-.737 1.505-.31.555-.672 1.147-1.088 1.777L39.493 9.59c-.107.16-.16.304-.16.432 0 .203.123.304.368.304.278 0 .79-.176 1.537-.528l2.561-1.184c2.242-1.014 4.387-1.521 6.436-1.521 1.067 0 2.07.507 3.01 1.52.95 1.025 1.424 2.124 1.424 3.298 0 1.815-.742 3.213-2.225 4.195l-1.985 1.312c-.715.448-1.452.891-2.21 1.329l-2.305 1.265c-2.593 1.344-4.597 2.017-6.01 2.017-1.415 0-2.442-.176-3.082-.528-.64-.353-.96-.849-.96-1.49 0-.864.709-1.61 2.128-2.24zm33.154-5.859c0 .577.49.865 1.473.865.725 0 1.675-.352 2.85-1.057l1.28-.704c.395-.224.739-.336 1.032-.336.294 0 .526.09.697.272.17.181.256.432.256.752s-.107.691-.32 1.113a7.698 7.698 0 01-.88 1.329c-.374.464-.812.923-1.313 1.376-.502.454-1.04.862-1.617 1.225-1.28.8-2.47 1.2-3.57 1.2-1.163 0-2.092-.197-2.786-.592a12.404 12.404 0 01-.624-.4c-1.142 1.302-2.796 2.497-4.963 3.586-2.305 1.153-4.316 1.729-6.035 1.729-1.803 0-3.228-.71-4.274-2.13-.843-1.152-1.265-2.32-1.265-3.505 0-1.708.913-3.335 2.738-4.883 1.344-1.131 2.644-1.99 3.898-2.577s2.388-1.04 3.402-1.36c2.145-.673 4.076-1.01 5.795-1.01.768 0 1.454.147 2.057.44.603.294 1.048.59 1.337.89.683.672 1.024 1.53 1.024 2.577 0 .31-.032.55-.096.72-.064.17-.096.33-.096.48zm-13.095 3.026l-.016.048V15c0 .459.101.758.304.896a1.926 1.926 0 001.553.233 10.857 10.857 0 001.553-.537 13.827 13.827 0 003.297-1.985 2.337 2.337 0 01-.256-1.056c0-.769.337-1.537 1.009-2.306-.854 0-2.006.4-3.458 1.201-1.6.886-2.801 1.798-3.602 2.738-.256.32-.384.57-.384.752zm34.867-3.026c0 .577.49.865 1.472.865.726 0 1.676-.352 2.85-1.057l1.28-.704c.395-.224.74-.336 1.033-.336.294 0 .526.09.696.272.171.181.257.432.257.752s-.107.691-.321 1.113a7.67 7.67 0 01-.88 1.329 12.04 12.04 0 01-1.313 1.376c-.501.454-1.04.862-1.617 1.225-1.28.8-2.47 1.2-3.57 1.2-1.163 0-2.091-.197-2.785-.592a12.45 12.45 0 01-.624-.4c-1.142 1.302-2.796 2.497-4.963 3.586-2.305 1.153-4.317 1.729-6.035 1.729-1.804 0-3.229-.71-4.274-2.13-.844-1.152-1.265-2.32-1.265-3.505 0-1.708.912-3.335 2.737-4.883 1.345-1.131 2.644-1.99 3.898-2.577s2.388-1.04 3.402-1.36c2.145-.673 4.077-1.01 5.795-1.01.769 0 1.454.147 2.057.44.603.294 1.049.59 1.337.89.683.672 1.025 1.53 1.025 2.577 0 .31-.032.55-.096.72-.064.17-.096.33-.096.48zM79.85 14.936l-.016.048V15c0 .459.101.758.304.896a1.926 1.926 0 001.553.233 10.848 10.848 0 001.552-.537 13.827 13.827 0 003.298-1.985 2.337 2.337 0 01-.256-1.056c0-.769.336-1.537 1.009-2.306-.854 0-2.007.4-3.458 1.201-1.601.886-2.802 1.798-3.602 2.738-.256.32-.384.57-.384.752zm35.715-1.761c0 .971.282 1.457.848 1.457 1.388 0 3.191-.94 5.411-2.818l.432-.368c.865-.576 1.566-.864 2.105-.864.539 0 .881.08 1.025.24.144.16.216.416.216.768 0 .79-.4 1.628-1.201 2.514-1.195 1.451-2.833 2.828-4.914 4.13-2.412 1.515-4.573 2.273-6.484 2.273-1.334 0-2.172-.742-2.513-2.225a8.933 8.933 0 01-.208-1.105c-.107-.854-.219-1.329-.336-1.425-.118-.096-.35-.088-.697.024a7.3 7.3 0 00-1.232.56c-.475.262-1.001.58-1.577.953-3.053 2.028-4.808 3.186-5.267 3.474-1.099.683-1.841 1.025-2.225 1.025-.384 0-.76-.08-1.129-.24a3.639 3.639 0 01-.968-.609c-.577-.544-.865-1.1-.865-1.665 0-3.233.705-6.062 2.113-8.484.94-1.633 2.092-2.764 3.458-3.394a5.14 5.14 0 012.241-.496c1.462 0 2.194.48 2.194 1.44 0 .587-.347 1.548-1.041 2.882l-.48.944c-.342.652-.507 1.02-.497 1.105.064.32.209.48.433.48.245 0 .608-.181 1.088-.544l2.946-2.193 1.473-1.025c1.697-1.11 2.945-1.665 3.746-1.665.427 0 .816.171 1.168.513.651.619.977 1.158.977 1.617 0 .149-.014.33-.04.544l-.088.688-.064.753a5.946 5.946 0 00-.048.736z" fill="#fff"/></svg>