<svg width="60" height="60" fill="none" xmlns="http://www.w3.org/2000/svg"><g filter="url(#filter0_d_1_49)"><path d="M54.727 3.516h-1.961V1.758a1.758 1.758 0 00-3.516 0v1.758H38.586V1.758a1.758 1.758 0 00-3.516 0v1.758H24.523V1.758a1.758 1.758 0 00-3.515 0v1.758H10.344V1.758a1.758 1.758 0 00-3.516 0v1.758H5.273A5.28 5.28 0 000 8.789v45.938A5.28 5.28 0 005.273 60h49.454A5.28 5.28 0 0060 54.727V8.789a5.28 5.28 0 00-5.273-5.273zm1.757 51.21a1.76 1.76 0 01-1.757 1.758h-6.39l8.147-8.147v6.39zM45.852 54v-8.062h8.06L45.853 54zm10.632-11.577h-12.39c-.971 0-1.758.787-1.758 1.758v12.304H5.273a1.76 1.76 0 01-1.757-1.757v-37.15h52.968v24.844zm0-29.285v.925H3.516V8.788c0-.97.788-1.758 1.757-1.758h1.555v1.76a1.758 1.758 0 003.516 0V7.03h10.664v1.76a1.758 1.758 0 003.515 0V7.031H35.07V8.79a1.758 1.758 0 003.516 0V7.031H49.25V8.79a1.758 1.758 0 003.516 0V7.031h1.96c.97 0 1.758.789 1.758 1.758v4.348z" fill="#5AB963"/><path d="M19.367 21.094H12.22c-.971 0-1.758.787-1.758 1.758v7.03c0 .972.787 1.759 1.758 1.759h7.148c.971 0 1.758-.787 1.758-1.758v-7.031c0-.971-.787-1.758-1.758-1.758zm-1.758 7.031h-3.632v-3.516h3.632v3.516zm1.758 7.266H12.22c-.971 0-1.758.787-1.758 1.757v7.032c0 .97.787 1.758 1.758 1.758h7.148c.971 0 1.758-.788 1.758-1.758v-7.032c0-.97-.787-1.757-1.758-1.757zm-1.758 7.03h-3.632v-3.515h3.632v3.516zm15.82-21.327H26.4c-.971 0-1.758.787-1.758 1.758v7.03c0 .972.787 1.759 1.758 1.759h7.03c.971 0 1.759-.787 1.759-1.758v-7.031c0-.971-.788-1.758-1.758-1.758zm-1.757 7.031h-3.516v-3.516h3.516v3.516zm1.758 7.266h-7.032c-.97 0-1.757.787-1.757 1.757v7.032c0 .97.787 1.758 1.758 1.758h7.03a1.76 1.76 0 001.759-1.758v-7.032c0-.97-.788-1.757-1.758-1.757zm-1.758 7.03h-3.516v-3.515h3.516v3.516zm15.937-21.327h-7.148c-.97 0-1.758.787-1.758 1.758v7.03c0 .972.787 1.759 1.758 1.759h7.148c.971 0 1.758-.787 1.758-1.758v-7.031c0-.971-.787-1.758-1.758-1.758zm-1.757 7.031h-3.633v-3.516h3.633v3.516z" fill="#000"/></g><defs><filter id="filter0_d_1_49" x="-4" y="0" width="68" height="68" filterUnits="userSpaceOnUse" color-interpolation-filters="sRGB"><feFlood flood-opacity="0" result="BackgroundImageFix"/><feColorMatrix in="SourceAlpha" values="0 0 0 0 0 0 0 0 0 0 0 0 0 0 0 0 0 0 127 0" result="hardAlpha"/><feOffset dy="4"/><feGaussianBlur stdDeviation="2"/><feComposite in2="hardAlpha" operator="out"/><feColorMatrix values="0 0 0 0 0 0 0 0 0 0 0 0 0 0 0 0 0 0 0.25 0"/><feBlend in2="BackgroundImageFix" result="effect1_dropShadow_1_49"/><feBlend in="SourceGraphic" in2="effect1_dropShadow_1_49" result="shape"/></filter></defs></svg>