<svg width="60" height="60" fill="none" xmlns="http://www.w3.org/2000/svg"><path d="M58.886 26.78a5.23 5.23 0 00-4.169-2.052H49.29c.023-.583.034-1.17.034-1.758 0-.97-.787-1.757-1.757-1.757H1.757C.787 21.213 0 22 0 22.971 0 33.42 3.553 43.08 9.495 49.33H1.757a1.757 1.757 0 00-1.572 2.544c2.466 4.931 7.549 8.118 12.95 8.118h23.057c5.399 0 10.48-3.187 12.946-8.118a1.758 1.758 0 00-1.572-2.544H39.83a29.394 29.394 0 002.936-3.643c3.746-.43 7.415-1.951 10.417-4.333 3.28-2.6 5.637-6.133 6.639-9.944a5.317 5.317 0 00-.935-4.632zm-25.379 7.463v4.544h-3.514v-4.544l1.757-1.758 1.758 1.758zm10.742 18.58c-2.065 2.267-4.995 3.655-8.056 3.655H13.135c-3.063 0-5.995-1.389-8.06-3.655h39.174zm-9.67-3.492H14.745C8.173 44.377 3.978 35.115 3.55 24.728h26.442v4.544l-3 3c-.33.33-.515.777-.515 1.243v7.03c0 .97.787 1.757 1.757 1.757h7.03c.97 0 1.757-.787 1.757-1.758v-7.03c0-.465-.185-.912-.515-1.242l-3-3v-4.568h12.266c-.38 9.245-3.934 19.154-11.194 24.627zm21.842-18.814c-1.376 5.238-5.867 9.523-11.284 11.116 1.98-3.986 3.316-8.546 3.881-13.39h5.699c.747 0 1.19.428 1.386.683.349.453.465 1.033.318 1.591z" fill="#5AB963"/><path d="M37.257 14.514c-.247-.221-1.172-1.245-1.172-2.205 0-.92.874-1.931 1.172-2.205 1.495-1.34 2.319-3.052 2.319-4.824 0-1.773-.824-3.486-2.319-4.824a1.757 1.757 0 00-2.344 2.618c.75.673 1.148 1.435 1.148 2.205s-.397 1.533-1.148 2.206c-.24.215-2.343 2.174-2.343 4.824s2.103 4.61 2.343 4.824a1.757 1.757 0 102.344-2.618zm-10.544 0c-.248-.221-1.172-1.245-1.172-2.205 0-.92.874-1.931 1.172-2.205 1.495-1.34 2.318-3.052 2.318-4.824 0-1.773-.823-3.486-2.318-4.824a1.757 1.757 0 10-2.345 2.618c.751.673 1.149 1.435 1.149 2.205s-.397 1.533-1.149 2.206c-.24.215-2.342 2.174-2.342 4.824s2.103 4.61 2.342 4.824a1.757 1.757 0 102.345-2.618zm-10.544 0c-.248-.221-1.173-1.245-1.173-2.205 0-.92.875-1.931 1.173-2.205 1.495-1.34 2.318-3.052 2.318-4.824 0-1.773-.823-3.486-2.318-4.824a1.757 1.757 0 10-2.345 2.618c.751.673 1.148 1.435 1.148 2.205s-.397 1.533-1.148 2.206c-.24.215-2.342 2.174-2.342 4.824s2.102 4.61 2.342 4.824a1.757 1.757 0 102.345-2.618z" fill="#000"/></svg>