<svg width="60" height="53" fill="none" xmlns="http://www.w3.org/2000/svg"><path d="M58.2 31.196c1.706-2.086 2.203-4.586 1.475-7.434-.706-2.763-2.769-4.988-5.519-5.95-2.801-.983-5.88-.523-8.236 1.23-.367.273-1.6 1.158-2.042 1.333-.23.091-.428.225-.591.388-9.049 5.168-20.603 4.595-29.094-1.722a8.74 8.74 0 00-1.319-.809l-.03-.015c-2.133-1.053-4.644-1.213-6.978-.395-2.77.97-4.843 3.19-5.546 5.94-.68 2.665-.1 5.38 1.458 7.456A8.457 8.457 0 00.32 34.21c-.732 2.867-.207 5.384 1.562 7.481 1.75 2.075 4.357 3.338 6.33 4.53a42.211 42.211 0 0021.844 6.067c12.862 0 20.743-5.4 25.691-8.391 3.318-2.006 4.896-5.899 3.928-9.687a8.467 8.467 0 00-1.474-3.014zm-4.28 9.727l-3.846 2.325a38.584 38.584 0 01-40.035 0c-3.917-2.368-7.431-3.812-6.315-8.182a4.911 4.911 0 01.69-1.52c4.627 2.715 6.027 3.628 9.051 4.917l.857 2.124a1.756 1.756 0 002.282.97 1.741 1.741 0 001.102-1.552 42.3 42.3 0 006.063 1.368l1.087 2.697a1.76 1.76 0 002.283.97c.9-.357 1.338-1.37.978-2.263l-.405-1.002a42.524 42.524 0 006.69-.157l.989 2.452a1.76 1.76 0 002.282.97c.9-.357 1.338-1.37.978-2.263l-.678-1.68a42.212 42.212 0 007.317-2.084l.635 1.575a1.756 1.756 0 002.282.97 1.738 1.738 0 00.978-2.264l-.677-1.678c2.298-1.115 6.067-3.387 7.067-4.08.321.474.56.993.696 1.53.597 2.334-.326 4.633-2.352 5.857zM50.072 32.8c-11.794 7.13-26.824 7.793-40.054-.012-4.636-2.72-4.14-2.399-4.74-2.9-1.46-1.294-2.066-3.269-1.555-5.27.42-1.642 1.627-2.922 3.312-3.512a5.53 5.53 0 013.633-.025l3.653 9.058a1.756 1.756 0 002.282.97c.9-.357 1.338-1.37.978-2.263l-1.904-4.72a29.645 29.645 0 006.382 2.562l2.796 6.934a1.756 1.756 0 002.282.97c.9-.357 1.338-1.37.978-2.264l-1.946-4.825a30.84 30.84 0 006.796.109l2.424 6.01a1.756 1.756 0 002.282.97c.9-.357 1.338-1.37.978-2.264l-2.124-5.267a29.666 29.666 0 007.136-2.532l2.262 5.61a1.756 1.756 0 002.282.97c.9-.357 1.338-1.37.978-2.263l-2.461-6.103c.44-.294.876-.598 1.303-.916a5.339 5.339 0 014.96-.733c1.665.583 2.862 1.867 3.285 3.523 1.117 4.37-2.289 5.82-6.198 8.183z" fill="#5AB963"/><path d="M22.28 10.17a5.902 5.902 0 002.662-4.932c0-1.986-.995-3.83-2.661-4.931a1.765 1.765 0 00-2.435.483c-.538.8-.32 1.881.487 2.414a2.403 2.403 0 011.098 2.034c0 .831-.4 1.573-1.098 2.034a5.902 5.902 0 00-2.661 4.931c0 1.987.995 3.83 2.661 4.932a1.765 1.765 0 002.435-.483c.538-.8.32-1.881-.487-2.415a2.403 2.403 0 01-1.098-2.034c0-.83.4-1.572 1.098-2.033zm8.78 0a5.902 5.902 0 002.66-4.932A5.9 5.9 0 0031.06.307a1.765 1.765 0 00-2.435.483c-.538.8-.32 1.881.487 2.414a2.403 2.403 0 011.097 2.034c0 .831-.4 1.573-1.097 2.034a5.902 5.902 0 00-2.661 4.931c0 1.987.994 3.83 2.66 4.932a1.765 1.765 0 002.435-.483c.538-.8.32-1.881-.487-2.415a2.403 2.403 0 01-1.097-2.034c0-.83.4-1.572 1.097-2.033zm8.778 0a5.902 5.902 0 002.66-4.932 5.9 5.9 0 00-2.66-4.931 1.765 1.765 0 00-2.435.483c-.538.8-.32 1.881.487 2.414a2.403 2.403 0 011.097 2.034c0 .831-.4 1.573-1.097 2.034a5.902 5.902 0 00-2.661 4.931c0 1.987.995 3.83 2.661 4.932a1.765 1.765 0 002.435-.483c.538-.8.32-1.881-.487-2.415a2.403 2.403 0 01-1.098-2.034c0-.83.4-1.572 1.098-2.033z" fill="#000"/></svg>