<svg width="24" height="24" viewBox="0 0 12 10" fill="none" xmlns="http://www.w3.org/2000/svg"><g clip-path="url(#clip0_1_117)"><mask id="mask0_1_117" style="mask-type:alpha" maskUnits="userSpaceOnUse" x="0" y="-1" width="12" height="12"><path d="M12-1H0v12h12V-1z" fill="#fff"/></mask><g mask="url(#mask0_1_117)"><path fill-rule="evenodd" clip-rule="evenodd" d="M10.875 1.496L11.625 0 10.5.747l-.219.11A2.422 2.422 0 008.437 0C7.091 0 6 .9 6 2.244c0 .183.024.547.062.717L6 2.993S1.125 2.244.75.373c0 0-1.125 1.871.75 3.367 0 0-.75.374-1.125 0 0 0 0 1.123 1.875 2.245 0 0-.75.373-1.125 0 0 0 1.5 1.495 2.25 1.495 0 0 0 1.124-3.375 1.124 0 0 4.267 2.804 8.25-.374 2.025-1.617 2.518-3.664 2.545-5.208.047-.19.08-.386.08-.59v-.188L12 1.122l-1.125.373z" fill="#fff"/></g></g><defs><clipPath id="clip0_1_117"><path fill="#fff" d="M0 0h12v10H0z"/></clipPath></defs></svg>